<svg width="6" height="5" viewBox="0 0 6 5" fill="none" xmlns="http://www.w3.org/2000/svg">
<path d="M5.76001 2.62667C5.87783 2.62667 5.97334 2.53116 5.97334 2.41334C5.97334 2.29552 5.87783 2.2 5.76001 2.2H1.06667C0.948849 2.2 0.853333 2.29552 0.853333 2.41334C0.853333 2.53115 0.948848 2.62667 1.06667 2.62667H5.76001Z" fill="#00B6CC"/>
<path d="M2.44871 4.09704C2.53201 4.18034 2.66707 4.18034 2.75037 4.09704C2.83368 4.01374 2.83368 3.87867 2.75037 3.79537L1.36833 2.41333L2.75037 1.03129C2.83368 0.947988 2.83368 0.812925 2.75037 0.729622C2.66707 0.646319 2.53201 0.646319 2.44871 0.729622L0.917076 2.26125L0.915816 2.26248C0.832505 2.34579 0.832505 2.48087 0.915816 2.56418L0.915832 2.56417L2.4487 4.09705L2.44871 4.09704Z" fill="#00B6CC"/>
</svg>
