<svg width="7" height="7" viewBox="0 0 7 7" fill="none" xmlns="http://www.w3.org/2000/svg">
<path d="M1.06667 3.2C0.948849 3.2 0.853333 3.29551 0.853333 3.41333C0.853333 3.53115 0.948848 3.62667 1.06667 3.62667H5.76001C5.87783 3.62667 5.97334 3.53115 5.97334 3.41333C5.97334 3.29551 5.87783 3.2 5.76001 3.2H1.06667V3.2Z" fill="white"/>
<path d="M4.37797 1.72962C4.29467 1.64632 4.1596 1.64632 4.0763 1.72962C3.993 1.81292 3.993 1.94798 4.0763 2.03129L5.45834 3.41333L4.0763 4.79537C3.993 4.87867 3.993 5.01373 4.0763 5.09704C4.1596 5.18034 4.29467 5.18034 4.37797 5.09704L5.9096 3.56541L5.91086 3.56418C5.99417 3.48087 5.99417 3.34579 5.91086 3.26248L5.91085 3.26249L4.37797 1.72961L4.37797 1.72962Z" fill="white"/>
</svg>
