<?xml version="1.0" standalone="no"?>
<!DOCTYPE svg PUBLIC "-//W3C//DTD SVG 20010904//EN"
 "http://www.w3.org/TR/2001/REC-SVG-20010904/DTD/svg10.dtd">
<svg version="1.0" xmlns="http://www.w3.org/2000/svg"
 width="900.000000pt" height="506.000000pt" viewBox="0 0 900.000000 506.000000"
 preserveAspectRatio="xMidYMid meet">

<g transform="translate(0.000000,506.000000) scale(0.100000,-0.100000)"
fill="#000000" stroke="none">
<path d="M6491 2874 c-76 -20 -131 -53 -158 -93 l-23 -34 0 -463 0 -464 105 0
105 0 0 433 c0 477 4 513 60 595 l30 42 -33 -1 c-17 0 -56 -7 -86 -15z"/>
<path d="M5172 2513 c3 -355 4 -370 26 -425 48 -119 127 -188 270 -236 72 -25
88 -26 267 -26 137 0 218 5 290 18 110 20 196 49 216 72 10 13 -26 14 -312 12
-323 -3 -324 -3 -377 21 -63 28 -123 93 -148 159 -15 41 -18 94 -22 410 l-4
362 -104 0 -105 0 3 -367z"/>
<path d="M4479 2342 c-24 -21 -32 -39 -36 -73 -5 -41 -2 -50 27 -82 75 -86
200 -37 200 79 0 28 -8 44 -34 70 -29 29 -41 34 -80 34 -36 0 -52 -6 -77 -28z"/>
<path d="M2593 2242 l-102 -54 -3 -196 c-3 -181 -5 -201 -26 -247 -26 -56 -72
-109 -116 -132 -16 -8 -63 -21 -104 -28 -60 -11 -81 -19 -105 -43 -50 -50 -35
-62 80 -62 205 0 344 64 420 191 55 93 64 148 61 400 l-3 224 -102 -53z"/>
<path d="M2951 2286 c-48 -17 -108 -71 -133 -119 -29 -54 -30 -155 -4 -207 40
-77 106 -124 195 -138 l50 -7 -24 -59 c-26 -63 -72 -118 -119 -143 -16 -8 -63
-21 -105 -28 -64 -11 -80 -19 -104 -45 -15 -17 -26 -37 -24 -43 5 -16 185 -21
252 -7 71 15 165 61 214 105 42 38 96 134 107 190 l6 32 126 5 c206 8 333 63
423 182 44 58 60 106 67 208 l5 78 -105 0 -105 0 -5 -75 c-4 -57 -12 -90 -37
-139 -55 -113 -133 -156 -283 -156 l-78 0 0 98 c0 86 -3 105 -26 150 -14 29
-41 64 -58 77 -67 51 -162 68 -235 41z"/>
<path d="M490 2126 c0 -205 13 -303 50 -383 49 -106 148 -179 290 -214 85 -21
339 -18 415 5 176 53 273 150 306 303 l11 53 27 -14 c15 -8 56 -23 91 -33 90
-25 391 -24 535 1 109 20 196 49 215 71 11 13 -29 15 -316 12 -317 -2 -331 -1
-374 19 -92 43 -155 137 -166 246 -11 106 -1 98 -118 98 l-104 0 -4 -228 -3
-228 -33 -67 c-58 -117 -152 -164 -313 -155 -105 6 -175 39 -226 106 -55 72
-63 119 -63 359 l0 213 -110 0 -110 0 0 -164z"/>
<path d="M4032 2058 c4 -212 6 -238 27 -290 43 -109 143 -191 286 -234 76 -23
330 -26 415 -5 134 33 247 116 294 215 34 72 46 169 46 370 l0 176 -107 0
-108 0 0 -208 c0 -234 -11 -288 -68 -364 -51 -67 -121 -100 -226 -106 -160 -9
-256 39 -313 156 l-33 67 -3 227 -4 228 -105 0 -105 0 4 -232z"/>
<path d="M3463 1710 c-40 -24 -53 -48 -53 -100 0 -57 50 -110 104 -110 53 0
95 25 113 67 44 107 -65 203 -164 143z"/>
</g>
</svg>
