<?xml version="1.0" encoding="UTF-8"?>
<!DOCTYPE svg PUBLIC "-//W3C//DTD SVG 1.1//EN" "http://www.w3.org/Graphics/SVG/1.1/DTD/svg11.dtd">
<!-- Creator: CorelDRAW X8 -->
<svg xmlns="http://www.w3.org/2000/svg" xml:space="preserve" width="16.4in" height="5.8in" version="1.1" style="shape-rendering:geometricPrecision; text-rendering:geometricPrecision; image-rendering:optimizeQuality; fill-rule:evenodd; clip-rule:evenodd"
viewBox="0 0 16400 5800"
 xmlns:xlink="http://www.w3.org/1999/xlink">
 <defs>
  <style type="text/css">
   <![CDATA[
    .fil0 {fill:#FEFEFE}
   ]]>
  </style>
 </defs>
 <g id="__x0023_Layer_x0020_1">
  <metadata id="CorelCorpID_0Corel-Layer"/>
  <path class="fil0" d="M12476 2281c-55,58 -98,131 -129,220 -31,89 -46,196 -46,321l0 1619 -431 0 0 -1837c0,-309 662,-380 606,-323zm-1833 2161l0 0c-349,0 -618,-76 -806,-227 -188,-151 -283,-382 -283,-691l0 -1248 439 0 0 1248c0,125 15,232 47,321 31,89 75,162 131,220 56,57 124,99 204,126 80,27 169,41 268,41 422,0 1124,-31 1124,-31 0,0 -35,73 -131,109 -189,72 -563,132 -993,132zm-2316 633l0 0c-349,0 -617,-76 -805,-228 -189,-151 -283,-381 -283,-690l0 -682 438 0 0 682c0,124 16,231 47,320 31,89 75,163 132,220 56,57 124,99 204,126 79,27 168,41 267,41 99,0 188,-14 268,-41 79,-27 147,-69 204,-126 56,-57 100,-131 131,-220 31,-89 47,-196 47,-320l0 -682 438 0 0 682c0,309 -94,539 -284,690 -189,152 -457,228 -804,228zm-11 -1288l0 0c-132,0 -240,-108 -240,-240 0,-132 108,-240 240,-240 133,0 240,108 240,240 0,132 -107,240 -240,240zm-2446 660l0 0c-60,0 -116,-2 -171,-6 -12,67 -29,128 -52,185 -47,114 -113,209 -198,285 -85,76 -189,133 -310,171 -121,38 -255,57 -404,57 -72,0 -143,-6 -213,-18 -70,-12 70,-207 183,-207 81,0 157,-12 228,-37 70,-25 132,-66 184,-122 53,-56 94,-127 124,-214 10,-32 19,-66 26,-102 -14,1 -28,2 -42,2 -271,0 -491,-220 -491,-491 0,-271 220,-490 491,-490 272,0 492,219 492,490 0,4 0,8 0,11l0 0 0 263c0,1 0,1 0,2 48,8 99,12 153,12 98,0 186,-13 265,-40 79,-27 146,-69 202,-126 56,-57 100,-129 131,-218 31,-89 46,-151 46,-275l0 -107 435 0 0 107c0,307 -94,492 -282,643 -188,150 -454,225 -797,225zm-1579 464l0 0c-85,76 -188,133 -309,171 -121,38 -256,57 -405,57 -71,0 -142,-6 -213,-18 -70,-12 70,-207 183,-207 82,0 157,-12 228,-37 70,-25 132,-66 184,-122 53,-56 94,-127 124,-214 30,-87 44,-193 44,-317l0 -539 432 -225 0 764c0,154 -23,288 -70,402 -47,114 -113,209 -198,285zm-1381 -469l0 0c-271,0 -493,-46 -667,-137 -27,235 -119,416 -277,542 -189,152 -457,228 -804,228 -348,0 -617,-76 -805,-228 -189,-151 -283,-381 -283,-690l0 -682 439 0 0 682c0,124 15,231 46,320 32,89 75,163 132,220 56,57 124,99 204,126 79,27 169,41 267,41 99,0 188,-14 268,-41 79,-27 147,-69 204,-126 56,-57 100,-131 131,-220 32,-89 47,-196 47,-320l0 -682 439 0 0 49 9 0c0,125 16,232 47,321 31,89 75,162 131,220 57,57 125,99 204,126 80,27 169,41 268,41 423,0 1125,-31 1125,-31 0,0 -35,73 -131,109 -190,72 -563,132 -994,132zm3309 173l0 0c133,0 240,108 240,240 0,133 -107,240 -240,240 -133,0 -240,-107 -240,-240 0,-132 107,-240 240,-240z"/>
  <path class="fil0" d="M15807 983c-413,143 -942,205 -1044,242 -195,73 -625,353 -437,468 112,69 122,21 151,22 13,0 -4,33 -16,30 -18,-4 -61,8 -105,8 -158,0 -433,13 -269,-290 243,-449 958,-349 1577,-494 378,-89 662,-291 662,-291 0,0 -228,204 -519,305zm-3162 418l0 0c-643,41 -1276,311 -1450,850 -193,598 -189,764 -189,764 0,0 -133,-945 386,-1451 762,-742 2488,-214 3202,-653 585,-360 872,-850 872,-850 0,0 -39,225 -579,763 -574,571 -1575,534 -2242,577zm306 1629l0 0c126,-131 144,-153 202,-242 59,-88 56,-204 56,-204 0,0 73,173 7,293 -138,251 -513,412 -626,682 -134,322 75,628 145,719 -74,-95 -307,-425 -188,-734 104,-269 262,-365 404,-514zm-216 1248l0 0c14,17 23,26 23,26 0,0 -9,-9 -23,-26zm426 -1139l0 0c81,-76 131,-142 131,-142l35 -72c0,0 30,73 1,128 -82,156 -323,239 -405,399 -91,174 -4,367 -4,367 0,0 -107,-186 -34,-360 71,-171 184,-233 276,-320zm210 250l0 0c-27,12 -93,8 -109,-84 -7,-43 48,-74 80,-69 31,6 30,59 130,-6 62,-40 17,-41 8,-103 -5,-38 2,-65 2,-65 0,0 124,136 33,218 -69,61 -81,40 -97,44 2,10 4,20 5,31 8,112 0,198 -155,254 -55,20 -97,19 -97,19 0,0 29,-1 55,-16 153,-91 158,-176 145,-223zm154 -60l0 0c32,-17 38,19 38,19 0,0 -27,30 -39,28 -6,-1 -62,-14 1,-47zm-422 -1406l0 0c-34,-12 -13,-37 -13,-37l125 -150c0,0 -77,198 -112,187zm557 -322l0 0c0,0 -402,98 -472,444 -49,244 169,349 189,592 6,86 -73,162 -73,162l-4 -110c0,0 -28,-111 -90,-252 -70,-161 -120,-179 -59,-432 79,-323 509,-404 509,-404zm620 323l0 0c0,0 18,27 42,70 16,28 57,38 63,74 8,54 -90,75 -79,145 10,58 16,79 16,79 0,0 -35,-37 -47,-87 -24,-91 44,-129 29,-177 -21,-67 -24,-104 -24,-104zm309 381l0 0c-32,-220 47,-583 47,-583 0,0 -41,-68 -61,-100 -6,-11 16,-53 34,-36 54,53 164,160 164,160 0,0 -94,331 -96,546 -2,225 97,531 97,531 0,0 -151,-287 -185,-518zm-1160 -567l0 0c0,0 -122,170 -12,475 101,279 475,467 576,739 36,97 35,194 81,250 92,113 629,-167 629,-167l120 69 -208 28c0,0 -427,193 -553,163 -56,-14 -99,-134 -99,-134l-40 -125c0,0 -68,-118 -184,-260 -132,-162 -302,-288 -382,-583 -82,-300 72,-455 72,-455z"/>
 </g>
</svg>
